<mxfile host="Electron" modified="2024-03-09T17:44:39.274Z" agent="Mozilla/5.0 (Windows NT 10.0; Win64; x64) AppleWebKit/537.36 (KHTML, like Gecko) draw.io/22.1.11 Chrome/114.0.5735.289 Electron/25.9.8 Safari/537.36" etag="TzQPFbU0UVGZJoyu1nSY" version="22.1.11" type="device">
  <diagram name="Страница — 1" id="17ytlJutnfbPDFOByeV_">
    <mxGraphModel dx="2193" dy="835" grid="1" gridSize="10" guides="1" tooltips="1" connect="1" arrows="1" fold="1" page="1" pageScale="1" pageWidth="827" pageHeight="1169" math="0" shadow="0">
      <root>
        <mxCell id="0" />
        <mxCell id="1" parent="0" />
        <mxCell id="o8RzPSBCsfLitdQUEArX-3" value="" style="edgeStyle=orthogonalEdgeStyle;rounded=0;orthogonalLoop=1;jettySize=auto;html=1;" parent="1" source="sD51jkV7iEJHB1a5SW3d-1" target="o8RzPSBCsfLitdQUEArX-2" edge="1">
          <mxGeometry relative="1" as="geometry" />
        </mxCell>
        <mxCell id="sD51jkV7iEJHB1a5SW3d-1" value="&lt;font style=&quot;font-size: 14px;&quot;&gt;XML - сообщение&lt;/font&gt;" style="ellipse;whiteSpace=wrap;html=1;aspect=fixed;" parent="1" vertex="1">
          <mxGeometry x="82.47999999999999" y="162.5" width="100" height="100" as="geometry" />
        </mxCell>
        <mxCell id="o8RzPSBCsfLitdQUEArX-4" style="edgeStyle=orthogonalEdgeStyle;rounded=0;orthogonalLoop=1;jettySize=auto;html=1;entryX=1;entryY=0.5;entryDx=0;entryDy=0;exitX=1;exitY=0.5;exitDx=0;exitDy=0;" parent="1" source="sD51jkV7iEJHB1a5SW3d-2" target="sD51jkV7iEJHB1a5SW3d-4" edge="1">
          <mxGeometry relative="1" as="geometry" />
        </mxCell>
        <mxCell id="sD51jkV7iEJHB1a5SW3d-2" value="&lt;font style=&quot;font-size: 14px;&quot;&gt;Создание платежного документа&lt;/font&gt;" style="shape=process;whiteSpace=wrap;html=1;backgroundOutline=1;" parent="1" vertex="1">
          <mxGeometry x="534.96" y="175" width="180" height="75" as="geometry" />
        </mxCell>
        <mxCell id="o8RzPSBCsfLitdQUEArX-5" value="" style="edgeStyle=orthogonalEdgeStyle;rounded=0;orthogonalLoop=1;jettySize=auto;html=1;" parent="1" source="sD51jkV7iEJHB1a5SW3d-4" target="sD51jkV7iEJHB1a5SW3d-6" edge="1">
          <mxGeometry relative="1" as="geometry" />
        </mxCell>
        <mxCell id="sD51jkV7iEJHB1a5SW3d-4" value="&lt;font style=&quot;font-size: 14px;&quot;&gt;Добавление Guid платёжному документу&lt;/font&gt;" style="shape=process;whiteSpace=wrap;html=1;backgroundOutline=1;" parent="1" vertex="1">
          <mxGeometry x="534.96" y="312.5" width="180" height="75" as="geometry" />
        </mxCell>
        <mxCell id="sD51jkV7iEJHB1a5SW3d-9" value="" style="edgeStyle=orthogonalEdgeStyle;rounded=0;orthogonalLoop=1;jettySize=auto;html=1;" parent="1" source="sD51jkV7iEJHB1a5SW3d-6" target="sD51jkV7iEJHB1a5SW3d-8" edge="1">
          <mxGeometry relative="1" as="geometry" />
        </mxCell>
        <mxCell id="sD51jkV7iEJHB1a5SW3d-6" value="&lt;span style=&quot;font-size: 14px;&quot;&gt;Создание платёжной транзакции&lt;/span&gt;" style="shape=process;whiteSpace=wrap;html=1;backgroundOutline=1;" parent="1" vertex="1">
          <mxGeometry x="304.96000000000004" y="310" width="180" height="80" as="geometry" />
        </mxCell>
        <mxCell id="o8RzPSBCsfLitdQUEArX-6" style="edgeStyle=orthogonalEdgeStyle;rounded=0;orthogonalLoop=1;jettySize=auto;html=1;entryX=0;entryY=0.5;entryDx=0;entryDy=0;exitX=0;exitY=0.5;exitDx=0;exitDy=0;" parent="1" source="sD51jkV7iEJHB1a5SW3d-8" target="sD51jkV7iEJHB1a5SW3d-10" edge="1">
          <mxGeometry relative="1" as="geometry" />
        </mxCell>
        <mxCell id="sD51jkV7iEJHB1a5SW3d-8" value="&lt;span style=&quot;font-size: 14px;&quot;&gt;Активация платёжной транзакции&lt;/span&gt;" style="shape=process;whiteSpace=wrap;html=1;backgroundOutline=1;" parent="1" vertex="1">
          <mxGeometry x="59.959999999999994" y="310" width="180" height="80" as="geometry" />
        </mxCell>
        <mxCell id="o8RzPSBCsfLitdQUEArX-7" value="" style="edgeStyle=orthogonalEdgeStyle;rounded=0;orthogonalLoop=1;jettySize=auto;html=1;" parent="1" source="sD51jkV7iEJHB1a5SW3d-10" target="sD51jkV7iEJHB1a5SW3d-13" edge="1">
          <mxGeometry relative="1" as="geometry" />
        </mxCell>
        <mxCell id="sD51jkV7iEJHB1a5SW3d-10" value="&lt;span style=&quot;font-size: 14px;&quot;&gt;Выполнение платёжной транзакции&lt;/span&gt;" style="shape=process;whiteSpace=wrap;html=1;backgroundOutline=1;" parent="1" vertex="1">
          <mxGeometry x="59.959999999999994" y="450" width="180" height="80" as="geometry" />
        </mxCell>
        <mxCell id="sD51jkV7iEJHB1a5SW3d-19" value="" style="edgeStyle=orthogonalEdgeStyle;rounded=0;orthogonalLoop=1;jettySize=auto;html=1;" parent="1" source="sD51jkV7iEJHB1a5SW3d-13" target="sD51jkV7iEJHB1a5SW3d-16" edge="1">
          <mxGeometry relative="1" as="geometry" />
        </mxCell>
        <mxCell id="sD51jkV7iEJHB1a5SW3d-13" value="&lt;span style=&quot;font-size: 14px;&quot;&gt;Занесение информации о транзакции в очередь для сервиса комиссий&lt;/span&gt;" style="shape=process;whiteSpace=wrap;html=1;backgroundOutline=1;" parent="1" vertex="1">
          <mxGeometry x="304.96000000000004" y="450" width="190" height="80" as="geometry" />
        </mxCell>
        <mxCell id="sD51jkV7iEJHB1a5SW3d-16" value="&lt;font style=&quot;font-size: 14px;&quot;&gt;Ответ пользователю&lt;/font&gt;" style="ellipse;whiteSpace=wrap;html=1;aspect=fixed;" parent="1" vertex="1">
          <mxGeometry x="580" y="440" width="100" height="100" as="geometry" />
        </mxCell>
        <mxCell id="o8RzPSBCsfLitdQUEArX-2" value="" style="strokeWidth=2;html=1;shape=mxgraph.flowchart.annotation_2;align=left;labelPosition=right;pointerEvents=1;" parent="1" vertex="1">
          <mxGeometry x="257.48" y="162.5" width="50" height="100" as="geometry" />
        </mxCell>
        <mxCell id="o8RzPSBCsfLitdQUEArX-10" style="edgeStyle=orthogonalEdgeStyle;rounded=0;orthogonalLoop=1;jettySize=auto;html=1;entryX=0;entryY=0.5;entryDx=0;entryDy=0;" parent="1" source="o8RzPSBCsfLitdQUEArX-8" target="sD51jkV7iEJHB1a5SW3d-2" edge="1">
          <mxGeometry relative="1" as="geometry" />
        </mxCell>
        <mxCell id="o8RzPSBCsfLitdQUEArX-8" value="&amp;nbsp;Events" style="label;whiteSpace=wrap;html=1;image=img/clipart/Gear_128x128.png" parent="1" vertex="1">
          <mxGeometry x="307.48" y="130" width="140" height="60" as="geometry" />
        </mxCell>
        <mxCell id="o8RzPSBCsfLitdQUEArX-11" style="edgeStyle=orthogonalEdgeStyle;rounded=0;orthogonalLoop=1;jettySize=auto;html=1;entryX=0;entryY=0.5;entryDx=0;entryDy=0;" parent="1" source="o8RzPSBCsfLitdQUEArX-9" target="sD51jkV7iEJHB1a5SW3d-2" edge="1">
          <mxGeometry relative="1" as="geometry" />
        </mxCell>
        <mxCell id="o8RzPSBCsfLitdQUEArX-9" value="Camunda" style="label;whiteSpace=wrap;html=1;image=img/clipart/Gear_128x128.png" parent="1" vertex="1">
          <mxGeometry x="307.48" y="230" width="140" height="60" as="geometry" />
        </mxCell>
        <mxCell id="qk1_jeXpU-OiNCO0bxP5-3" style="edgeStyle=orthogonalEdgeStyle;rounded=0;orthogonalLoop=1;jettySize=auto;html=1;entryX=0.5;entryY=0;entryDx=0;entryDy=0;" edge="1" parent="1" source="qk1_jeXpU-OiNCO0bxP5-1" target="qk1_jeXpU-OiNCO0bxP5-2">
          <mxGeometry relative="1" as="geometry" />
        </mxCell>
        <mxCell id="qk1_jeXpU-OiNCO0bxP5-1" value="" style="ellipse;html=1;shape=endState;fillColor=#000000;strokeColor=#fff;" vertex="1" parent="1">
          <mxGeometry x="-560" y="40" width="30" height="30" as="geometry" />
        </mxCell>
        <mxCell id="qk1_jeXpU-OiNCO0bxP5-2" value="&lt;b&gt;Создание первичного документа&lt;/b&gt;" style="rounded=1;whiteSpace=wrap;html=1;" vertex="1" parent="1">
          <mxGeometry x="-612.5" y="150" width="135" height="60" as="geometry" />
        </mxCell>
        <mxCell id="qk1_jeXpU-OiNCO0bxP5-4" value="Запрос на платёж" style="text;html=1;strokeColor=none;fillColor=none;align=center;verticalAlign=middle;whiteSpace=wrap;rounded=0;" vertex="1" parent="1">
          <mxGeometry x="-540" y="90" width="110" height="30" as="geometry" />
        </mxCell>
      </root>
    </mxGraphModel>
  </diagram>
</mxfile>
